<svg xmlns="http://www.w3.org/2000/svg" id="Layer_1" data-name="Layer 1" viewBox="0 0 113.52 122.88"><defs fill="#4a90e2"><style>.cls-1{fill-rule:evenodd;}</style></defs><title>data-center</title><path class="cls-1" d="M74.73,100.47c0-.1,0-.2,0-.31V46c0-.1,0-.21,0-.31a1.75,1.75,0,0,0-.48-.91,1.71,1.71,0,0,0-1.21-.5H40.51A1.72,1.72,0,0,0,38.79,46v54.15a1.74,1.74,0,0,0,1.72,1.73H54.09v2.79a9.26,9.26,0,0,0-6.33,6.25H34.31V116H47.69a9.28,9.28,0,0,0,17.91,0H89.36v-5.11H65.54A9.31,9.31,0,0,0,63.21,107a9.19,9.19,0,0,0-4-2.36v-2.79H73a1.68,1.68,0,0,0,1.21-.51,1.72,1.72,0,0,0,.48-.91Zm5-72.82c-.7.34-1.39.72-2.08,1.12a48.71,48.71,0,0,0-6.23,4.42L67,28.07a37.08,37.08,0,0,1,5-3.89,36.59,36.59,0,0,1,4.41-2.45c.61-.3,1.22-.59,1.85-.85a27.17,27.17,0,0,0-12-11.27A29.25,29.25,0,0,0,50.83,6.92,27.92,27.92,0,0,0,36.4,12.56a27.11,27.11,0,0,0-9.91,16.75l-.44,2.32L23.74,32a32.44,32.44,0,0,0-6.06,1.63,20.14,20.14,0,0,0-4.58,2.46,15,15,0,0,0-2.79,2.58A15.77,15.77,0,0,0,6.78,49a18.54,18.54,0,0,0,3.51,10.65,16.7,16.7,0,0,0,2.92,3.14A14.31,14.31,0,0,0,17,65.05a18.42,18.42,0,0,0,3.77,1.09V73a26.49,26.49,0,0,1-6.35-1.68A21.26,21.26,0,0,1,8.85,68a24,24,0,0,1-4.07-4.36A25.43,25.43,0,0,1,0,49,22.41,22.41,0,0,1,5.1,34.35a22,22,0,0,1,4-3.73,27.21,27.21,0,0,1,6.13-3.28,37.26,37.26,0,0,1,5.08-1.55A33.45,33.45,0,0,1,32.26,7.18a34.62,34.62,0,0,1,17.93-7,36,36,0,0,1,19,3.32A34.1,34.1,0,0,1,85,19.08h0a27.42,27.42,0,0,1,4.42-.34,22.71,22.71,0,0,1,16.91,7.35,26.78,26.78,0,0,1,2.79,3.6,30.42,30.42,0,0,1,4.41,16.55c-.07,5.83-1.64,11.63-4.85,15.91a25.41,25.41,0,0,1-8,6.85,41.36,41.36,0,0,1-10.79,4l-.76.09h-3V66.29h2.67a33.61,33.61,0,0,0,8.59-3.21,18.74,18.74,0,0,0,5.9-5c2.31-3.07,3.45-7.43,3.5-11.89a23.6,23.6,0,0,0-3.32-12.81,20.13,20.13,0,0,0-2.07-2.67,16.08,16.08,0,0,0-12-5.19,23.66,23.66,0,0,0-9.61,2.13Zm-20.18,83a4.16,4.16,0,1,0-5.89,5.88,4.16,4.16,0,1,0,5.89-5.88ZM61.42,87.6a5.15,5.15,0,1,1-5.14-5.15,5.14,5.14,0,0,1,5.14,5.15Zm6.93-34.44v4.32H45.2V53.16Zm0,12v4.32H45.2V65.12Z" fill="#4a90e2"/></svg>